<?xml version="1.0" encoding="UTF-8"?>
<!DOCTYPE svg PUBLIC "-//W3C//DTD SVG 1.1//EN" "http://www.w3.org/Graphics/SVG/1.1/DTD/svg11.dtd">
<svg xmlns="http://www.w3.org/2000/svg" version="1.1" width="2601px" height="786px" style="shape-rendering:geometricPrecision; text-rendering:geometricPrecision; image-rendering:optimizeQuality; fill-rule:evenodd; clip-rule:evenodd" xmlns:xlink="http://www.w3.org/1999/xlink">
<g><path style="opacity:0.988" fill="#fefffe" d="M 245.5,-0.5 C 252.5,-0.5 259.5,-0.5 266.5,-0.5C 362.474,4.23369 439.974,44.2337 499,119.5C 545.511,184.22 562.845,256.22 551,335.5C 546.715,383.686 532.049,428.353 507,469.5C 467.74,526.565 413.24,557.398 343.5,562C 290.233,564.347 239.567,554.013 191.5,531C 170.687,519.593 149.353,509.26 127.5,500C 113.044,494.136 98.0437,490.636 82.5,489.5C 67.7279,489.7 54.7279,494.534 43.5,504C 33.9449,512.652 25.4449,522.152 18,532.5C 20.3368,497.321 35.1701,468.821 62.5,447C 83.6971,433.033 107.03,426.533 132.5,427.5C 141.57,427.364 150.57,428.031 159.5,429.5C 162.934,426.307 165.1,422.307 166,417.5C 167.645,411.608 168.645,405.608 169,399.5C 169.333,330.833 169.667,262.167 170,193.5C 173.215,170.904 183.381,152.07 200.5,137C 220.5,122.667 240.5,108.333 260.5,94C 215.328,87.5007 171.328,92.1674 128.5,108C 100.646,119.199 78.1462,137.032 61,161.5C 40.0169,196.442 40.3503,231.108 62,265.5C 66.4666,270.968 71.3,276.135 76.5,281C 39.73,271.235 15.5634,248.068 4,211.5C 2.15469,204.43 0.654689,197.43 -0.5,190.5C -0.5,181.833 -0.5,173.167 -0.5,164.5C 6.15008,122.987 25.4834,88.4869 57.5,61C 98.054,29.3562 144.054,10.3562 195.5,4C 212.266,1.85446 228.933,0.354457 245.5,-0.5 Z M 264.5,94.5 C 342.345,108.563 400.511,149.896 439,218.5C 460.985,263.915 471.818,311.915 471.5,362.5C 471.571,390.609 467.071,417.943 458,444.5C 441.38,487.748 409.88,507.248 363.5,503C 342.701,500.134 322.701,494.467 303.5,486C 282.555,476.194 261.888,465.861 241.5,455C 225.828,447.998 209.828,441.831 193.5,436.5C 219.826,419.676 239.993,397.343 254,369.5C 258.958,357.958 262.291,345.958 264,333.5C 264.5,253.834 264.667,174.167 264.5,94.5 Z"/></g>
<g><path style="opacity:0.988" fill="#fefffe" d="M 1328.5,785.5 C 1317.5,785.5 1306.5,785.5 1295.5,785.5C 1266.93,782.219 1241.26,771.719 1218.5,754C 1207.67,744.5 1197.5,734.333 1188,723.5C 1167.33,696.167 1146.67,668.833 1126,641.5C 1086.5,595.567 1037,579.4 977.5,593C 963.419,595.516 949.419,598.35 935.5,601.5C 934.833,598.5 934.167,595.5 933.5,592.5C 975.263,579.227 1017.93,570.06 1061.5,565C 1120.53,555.493 1171.53,571.159 1214.5,612C 1224.7,622.534 1234.54,633.368 1244,644.5C 1262.03,668.871 1281.2,692.371 1301.5,715C 1310.11,722.937 1319.77,729.27 1330.5,734C 1355.56,743.212 1373.4,735.712 1384,711.5C 1388.26,698.511 1390.6,685.178 1391,671.5C 1391.33,524.5 1391.67,377.5 1392,230.5C 1395.73,192.211 1412.23,160.711 1441.5,136C 1450.32,129.421 1459.32,123.087 1468.5,117C 1470.5,115 1472.5,113 1474.5,111C 1461.73,116.878 1448.73,122.545 1435.5,128C 1383.86,145.929 1332.2,145.929 1280.5,128C 1268.28,123.888 1256.28,119.221 1244.5,114C 1218.25,99.3756 1190.59,88.3756 1161.5,81C 1137.32,75.2941 1114.32,78.2941 1092.5,90C 1081.81,97.3477 1071.47,105.181 1061.5,113.5C 1060.6,95.6159 1065.76,79.6159 1077,65.5C 1094.6,46.1079 1116.1,32.9412 1141.5,26C 1183.98,15.3634 1226.64,14.6968 1269.5,24C 1285.71,27.1799 1301.71,31.1799 1317.5,36C 1343.03,45.3979 1368.69,54.3979 1394.5,63C 1439.75,76.4876 1485.09,76.821 1530.5,64C 1546.88,59.155 1563.21,54.155 1579.5,49C 1584.5,47.0336 1589.33,47.2003 1594,49.5C 1594.9,52.025 1594.4,54.1917 1592.5,56C 1566.2,68.9641 1543.37,86.4641 1524,108.5C 1511.33,125.817 1503.33,145.151 1500,166.5C 1497.19,183.051 1495.53,199.718 1495,216.5C 1494.67,344.167 1494.33,471.833 1494,599.5C 1489.48,658.044 1465.64,706.877 1422.5,746C 1395.05,768.426 1363.72,781.593 1328.5,785.5 Z"/></g>
<g><path style="opacity:0.983" fill="#fefffe" d="M 2040.5,49.5 C 2042.29,49.2148 2043.95,49.5481 2045.5,50.5C 2049.03,54.8297 2051.36,59.6631 2052.5,65C 2051.49,74.484 2050.65,83.984 2050,93.5C 2049.33,215.833 2049.33,338.167 2050,460.5C 2052.6,479.437 2063.27,491.104 2082,495.5C 2082.5,501.157 2082.67,506.824 2082.5,512.5C 2028.83,512.5 1975.17,512.5 1921.5,512.5C 1921.17,506.794 1921.5,501.128 1922.5,495.5C 1946.73,490.422 1959.23,475.422 1960,450.5C 1960.67,339.5 1960.67,228.5 1960,117.5C 1956.71,101.43 1946.87,92.5967 1930.5,91C 1926.51,90.5012 1922.51,90.3345 1918.5,90.5C 1917.91,84.6973 1918.58,79.1973 1920.5,74C 1961.53,70.2271 2001.53,62.0604 2040.5,49.5 Z"/></g>
<g><path style="opacity:0.98" fill="#fefffe" d="M 2168.5,86.5 C 2196.86,84.0582 2215.03,96.3915 2223,123.5C 2225.87,144.266 2218.7,160.433 2201.5,172C 2184.09,181.132 2167.09,180.465 2150.5,170C 2129.97,152.62 2125.8,131.787 2138,107.5C 2145.64,96.6682 2155.81,89.6682 2168.5,86.5 Z"/></g>
<g><path style="opacity:0.985" fill="#fefffe" d="M 739.5,194.5 C 800.337,190.682 849.17,212.682 886,260.5C 918.3,310.187 924.966,363.187 906,419.5C 883.286,470.801 844.452,502.634 789.5,515C 746.912,522.868 706.246,517.202 667.5,498C 621.416,470.38 596.249,429.546 592,375.5C 588.054,317.293 607.554,268.793 650.5,230C 676.707,209.432 706.373,197.599 739.5,194.5 Z M 736.5,224.5 C 750.592,223.033 763.259,226.533 774.5,235C 790.322,249.464 801.488,266.964 808,287.5C 822.904,333.209 827.238,379.876 821,427.5C 818.111,448.113 809.277,465.613 794.5,480C 764.494,497.877 738.66,493.043 717,465.5C 698.484,437.293 687.484,406.293 684,372.5C 680.114,343.376 680.781,314.376 686,285.5C 689.833,265.66 699,248.827 713.5,235C 720.506,229.827 728.173,226.327 736.5,224.5 Z"/></g>
<g><path style="opacity:0.985" fill="#fefffe" d="M 2600.5,353.5 C 2600.5,358.5 2600.5,363.5 2600.5,368.5C 2594.48,434.363 2561.15,480.53 2500.5,507C 2457.19,522.255 2413.85,522.255 2370.5,507C 2321.77,487.267 2291.27,451.767 2279,400.5C 2267.45,343.532 2279.79,292.532 2316,247.5C 2357.78,204.129 2408.61,187.296 2468.5,197C 2520.7,207.342 2558.87,236.176 2583,283.5C 2593.26,305.858 2599.09,329.192 2600.5,353.5 Z M 2419.5,224.5 C 2441.58,223.29 2459.08,231.624 2472,249.5C 2489.59,277.262 2500.26,307.596 2504,340.5C 2508.11,368.464 2508.44,396.464 2505,424.5C 2502.5,443.686 2495.17,460.686 2483,475.5C 2466.53,490.658 2447.69,494.492 2426.5,487C 2411.67,478.833 2400.17,467.333 2392,452.5C 2375.27,419.181 2366.27,383.848 2365,346.5C 2363.26,321.345 2365.93,296.678 2373,272.5C 2378.55,254.517 2389.05,240.351 2404.5,230C 2409.45,227.692 2414.45,225.859 2419.5,224.5 Z"/></g>
<g><path style="opacity:0.988" fill="#fefffe" d="M 1164.5,195.5 C 1187.41,193.449 1209.08,197.615 1229.5,208C 1246.51,218.377 1256.35,233.544 1259,253.5C 1259.07,320.511 1259.74,387.511 1261,454.5C 1262.84,477.503 1275.01,491.169 1297.5,495.5C 1298.5,501.128 1298.83,506.794 1298.5,512.5C 1244.17,512.5 1189.83,512.5 1135.5,512.5C 1135.33,506.824 1135.5,501.157 1136,495.5C 1143.7,493.567 1150.87,490.4 1157.5,486C 1163.2,481.108 1166.7,474.941 1168,467.5C 1169.64,403.524 1169.97,339.524 1169,275.5C 1164.68,251.399 1150.18,239.732 1125.5,240.5C 1101.41,241.696 1079.91,249.696 1061,264.5C 1060.04,330.518 1060.37,396.518 1062,462.5C 1062.84,473.357 1067.67,481.857 1076.5,488C 1082.07,491.203 1087.9,493.703 1094,495.5C 1094.5,501.157 1094.67,506.824 1094.5,512.5C 1040.83,512.5 987.167,512.5 933.5,512.5C 933.171,506.794 933.505,501.128 934.5,495.5C 956.57,491.261 968.736,477.928 971,455.5C 972.627,396.52 972.96,337.52 972,278.5C 967.555,255.9 953.722,244.233 930.5,243.5C 930.5,237.833 930.5,232.167 930.5,226.5C 972.67,221.333 1014,212.333 1054.5,199.5C 1058.29,203.631 1061.29,208.297 1063.5,213.5C 1061.98,219.599 1061.32,225.599 1061.5,231.5C 1093.29,211.906 1127.62,199.906 1164.5,195.5 Z"/></g>
<g><path style="opacity:0.982" fill="#fefffe" d="M 2222.5,199.5 C 2223.68,199.281 2224.68,199.614 2225.5,200.5C 2229.48,205.129 2231.82,210.463 2232.5,216.5C 2231.56,226.491 2230.72,236.491 2230,246.5C 2229.33,317.5 2229.33,388.5 2230,459.5C 2232.15,478.99 2242.82,490.99 2262,495.5C 2262.5,501.157 2262.67,506.824 2262.5,512.5C 2209.17,512.5 2155.83,512.5 2102.5,512.5C 2102.5,506.833 2102.5,501.167 2102.5,495.5C 2123.37,492.465 2135.54,480.465 2139,459.5C 2140.64,395.527 2140.97,331.527 2140,267.5C 2137.17,254 2129,245.833 2115.5,243C 2109.89,241.869 2104.22,241.369 2098.5,241.5C 2098.5,236.167 2098.5,230.833 2098.5,225.5C 2141.06,222.056 2182.39,213.39 2222.5,199.5 Z"/></g>
<g><path style="opacity:0.984" fill="#fefffe" d="M 1857.5,203.5 C 1860.47,206.324 1862.97,209.657 1865,213.5C 1866.04,215.87 1866.54,218.37 1866.5,221C 1865.58,231.16 1864.75,241.327 1864,251.5C 1863.02,321.531 1863.35,391.531 1865,461.5C 1869.39,484.397 1883.23,495.73 1906.5,495.5C 1906.5,501.167 1906.5,506.833 1906.5,512.5C 1863.57,512.137 1821.4,517.47 1780,528.5C 1779.67,516.5 1779.33,504.5 1779,492.5C 1739.54,519.32 1696.04,530.82 1648.5,527C 1610.75,520.914 1588.58,499.08 1582,461.5C 1581.01,397.146 1580.01,332.813 1579,268.5C 1574.86,254.996 1565.7,247.496 1551.5,246C 1547.18,245.501 1542.85,245.334 1538.5,245.5C 1538.19,239.907 1538.53,234.407 1539.5,229C 1581.76,227.679 1623.09,220.846 1663.5,208.5C 1667.05,211.897 1669.88,215.897 1672,220.5C 1671.7,231.163 1671.03,241.83 1670,252.5C 1669.33,318.833 1669.33,385.167 1670,451.5C 1675.01,468.949 1686.51,479.449 1704.5,483C 1729.31,486.174 1752.48,481.341 1774,468.5C 1774.67,401.833 1774.67,335.167 1774,268.5C 1769.84,250.005 1758.34,241.672 1739.5,243.5C 1738.5,237.872 1738.17,232.206 1738.5,226.5C 1779.66,225.868 1819.32,218.201 1857.5,203.5 Z"/></g>
</svg>
